<?xml version="1.0" standalone="no"?>
<!DOCTYPE svg PUBLIC "-//W3C//DTD SVG 20010904//EN"
 "http://www.w3.org/TR/2001/REC-SVG-20010904/DTD/svg10.dtd">
<svg version="1.0" xmlns="http://www.w3.org/2000/svg"
 width="1600.000000pt" height="1600.000000pt" viewBox="0 0 1600.000000 1600.000000"
 preserveAspectRatio="xMidYMid meet">
<metadata>
Created by potrace 1.11, written by Peter Selinger 2001-2013
</metadata>
<g transform="translate(0.000000,1600.000000) scale(0.100000,-0.100000)"
fill="#000000" stroke="none">
<path d="M5734 14272 c-6 -9 -38 -66 -71 -127 -68 -124 -211 -385 -253 -460
-33 -59 -122 -222 -175 -320 -21 -38 -50 -92 -65 -120 -15 -27 -42 -76 -60
-109 -46 -84 -265 -487 -313 -576 -22 -41 -82 -151 -132 -245 -51 -93 -118
-219 -150 -280 -32 -60 -70 -132 -85 -160 -15 -27 -53 -99 -85 -160 -32 -60
-72 -137 -90 -170 -81 -150 -275 -533 -275 -542 0 -5 28 -18 63 -28 660 -190
1279 -534 1924 -1071 158 -132 218 -188 453 -424 244 -243 273 -275 416 -446
272 -325 483 -628 678 -971 90 -160 222 -433 271 -563 8 -19 23 -60 35 -90 67
-173 138 -429 184 -660 l15 -75 -5 95 c-6 113 -30 317 -49 415 -7 39 -16 88
-20 110 -23 145 -125 501 -195 685 -12 30 -27 71 -35 90 -123 329 -419 853
-640 1135 -295 377 -501 601 -797 870 -458 416 -1002 798 -1508 1058 -85 44
-157 81 -158 83 -2 1 58 121 133 266 76 145 165 315 198 378 33 63 83 160 112
215 29 55 79 152 112 215 308 588 594 1129 733 1383 l42 78 42 -7 c43 -7 73
-17 196 -66 280 -113 693 -368 995 -616 109 -89 330 -305 392 -385 26 -31 48
-55 51 -53 7 8 -107 216 -171 311 -103 152 -205 274 -356 425 -327 325 -748
624 -1222 865 -112 57 -126 62 -135 47z"/>
<path d="M4287 13573 c-9 -14 -170 -329 -357 -698 -413 -813 -528 -1040 -635
-1250 -62 -121 -215 -422 -340 -670 -125 -247 -254 -501 -287 -564 -32 -63
-57 -114 -56 -115 2 -1 44 -10 93 -20 536 -106 1191 -319 1740 -566 263 -119
703 -353 920 -491 605 -383 1016 -711 1501 -1194 236 -235 444 -464 579 -635
32 -41 62 -77 66 -80 18 -14 273 -363 369 -506 124 -184 149 -231 71 -134
-205 254 -599 643 -907 896 -242 199 -625 473 -839 603 -38 23 -98 60 -133 81
-189 118 -599 337 -837 447 -49 23 -130 60 -180 83 -74 34 -251 108 -465 195
-257 103 -697 251 -965 325 -44 12 -107 30 -140 40 -63 19 -246 64 -405 100
-52 12 -122 27 -155 35 -33 7 -83 16 -112 20 l-52 7 19 41 c10 23 68 145 129
272 62 126 113 238 114 248 2 16 -22 26 -163 68 -248 74 -280 83 -283 78 -2
-2 -34 -65 -72 -139 -37 -74 -100 -198 -140 -275 -40 -77 -132 -257 -205 -400
-73 -143 -150 -293 -172 -334 -21 -40 -38 -74 -36 -75 2 -2 64 2 138 7 416 27
1151 -42 1620 -152 121 -28 381 -93 425 -106 28 -8 84 -24 125 -35 87 -25 437
-141 525 -175 236 -91 323 -127 500 -203 212 -91 676 -319 820 -402 48 -28 88
-50 90 -50 4 0 330 -191 390 -228 263 -163 815 -542 815 -559 0 -2 -48 29
-107 71 -440 306 -1030 634 -1558 865 -27 12 -59 26 -70 31 -262 118 -790 310
-1055 385 -25 7 -83 24 -130 38 -47 13 -96 27 -110 31 -14 3 -68 18 -120 32
-380 100 -1106 232 -1225 222 l-39 -3 -98 -265 c-266 -726 -308 -843 -306
-846 2 -1 26 2 53 7 28 5 147 19 265 31 282 28 793 30 1100 5 751 -62 1398
-184 2190 -412 255 -74 419 -127 754 -245 320 -112 702 -270 1001 -414 39 -19
74 -31 80 -28 5 3 4 7 -3 10 -7 2 -12 9 -12 16 0 19 -111 271 -192 436 -181
367 -445 769 -735 1117 -133 161 -176 206 -393 423 -196 197 -263 259 -400
375 -789 668 -1721 1194 -2817 1590 l-132 48 98 196 c54 108 166 333 249 501
283 575 842 1694 850 1702 4 4 68 -17 142 -47 106 -44 137 -52 146 -43 17 19
207 339 203 342 -2 2 -29 15 -59 29 -30 14 -187 89 -349 166 -315 151 -327
156 -334 144z m3144 -6530 c13 -16 12 -17 -3 -4 -10 7 -18 15 -18 17 0 8 8 3
21 -13z"/>
<path d="M8480 9774 l0 -2695 63 46 c66 48 213 152 312 220 189 130 502 318
747 451 l148 79 0 2298 0 2297 -635 0 -635 0 0 -2696z m1090 1236 l0 -1270
-460 0 -460 0 0 1270 0 1270 460 0 460 0 0 -1270z m-354 -1867 c98 -33 172
-99 220 -199 39 -83 45 -205 15 -295 -43 -127 -134 -212 -263 -246 -58 -15
-74 -16 -129 -4 -148 30 -242 119 -290 272 -23 74 -24 113 -3 198 24 97 77
175 158 234 74 53 201 71 292 40z"/>
<path d="M9003 9044 c-64 -31 -126 -99 -147 -161 -21 -61 -20 -156 1 -218 26
-72 103 -146 177 -169 236 -74 434 186 320 421 -64 132 -222 190 -351 127z"/>
<path d="M10140 9914 c0 -1473 3 -1845 13 -1841 6 3 100 44 207 91 226 98 350
148 510 206 63 23 138 50 165 60 28 11 62 22 78 26 l27 6 0 1649 0 1649 -500
0 -500 0 0 -1846z m860 776 l0 -930 -360 0 -360 0 0 930 0 930 360 0 360 0 0
-930z m-258 -1380 c148 -55 220 -234 153 -378 -27 -58 -69 -102 -130 -135 -57
-31 -193 -31 -250 0 -48 25 -106 85 -131 133 -29 56 -26 181 6 244 67 130 215
188 352 136z"/>
<path d="M10577 9257 c-127 -40 -190 -193 -127 -307 84 -149 279 -155 377 -11
73 108 9 278 -120 316 -59 17 -78 18 -130 2z"/>
<path d="M11537 11123 c-4 -3 -7 -575 -7 -1271 0 -1177 1 -1264 17 -1258 9 4
35 11 57 16 23 5 60 16 84 23 l43 13 2 85 c2 76 5 91 32 135 19 30 49 60 79
79 44 27 58 30 130 30 72 0 86 -3 127 -29 48 -31 103 -102 113 -148 6 -27 8
-27 54 -21 26 3 67 12 92 18 l45 11 3 1162 2 1162 -433 0 c-239 0 -437 -3
-440 -7z m486 -123 l267 0 0 -820 0 -820 -317 2 -318 3 -3 817 c-2 771 -1 817
15 822 10 2 34 3 53 0 19 -2 155 -4 303 -4z"/>
<path d="M11900 8913 c-71 -27 -125 -117 -118 -194 3 -27 7 -51 9 -53 2 -2 76
14 164 35 88 22 170 42 183 44 29 7 29 35 0 87 -33 58 -90 88 -164 87 -32 0
-66 -3 -74 -6z"/>
<path d="M12865 8724 c-49 -7 -137 -20 -195 -29 -128 -20 -301 -51 -392 -70
-38 -8 -101 -22 -140 -31 -1179 -253 -2443 -804 -3412 -1487 -247 -174 -656
-497 -681 -538 -4 -6 19 3 52 19 463 233 1286 537 1938 716 577 158 1146 270
1685 331 501 56 1034 66 1437 27 122 -12 242 -26 267 -31 29 -5 46 -5 46 1 0
9 -188 528 -340 941 l-62 167 -57 -1 c-31 -1 -96 -7 -146 -15z"/>
<path d="M2533 5319 c-106 -20 -187 -83 -231 -179 -21 -44 -27 -74 -30 -152
l-4 -97 368 -3 c417 -3 421 -4 472 -81 l27 -41 5 -735 5 -736 240 0 240 0 0
760 0 760 -22 32 c-13 17 -23 34 -23 37 0 3 161 6 358 8 l357 3 57 28 c62 30
105 74 140 140 19 36 22 58 23 152 l0 110 -970 1 c-533 1 -989 -2 -1012 -7z"/>
<path d="M4920 4393 c0 -892 1 -940 19 -978 10 -22 31 -52 47 -67 54 -50 89
-58 259 -58 l155 0 0 940 c0 1039 4 966 -63 1038 -47 49 -105 62 -274 62
l-143 0 0 -937z"/>
<path d="M5800 4312 l0 -1022 240 0 240 0 0 712 0 713 333 -333 c182 -182 337
-332 342 -332 6 0 156 146 335 325 l325 325 5 -702 5 -703 243 -3 242 -2 -2
1017 -3 1018 -50 3 c-65 4 -224 -13 -300 -33 -79 -20 -211 -84 -277 -133 -29
-22 -158 -144 -286 -272 l-233 -232 -242 239 c-258 255 -328 310 -463 364
-109 44 -178 58 -326 66 l-128 6 0 -1021z"/>
<path d="M8896 5319 c-142 -21 -281 -125 -345 -259 l-36 -75 -3 -660 -3 -660
26 -71 c45 -125 143 -224 273 -276 l57 -23 883 -3 882 -3 0 206 0 205 -772 0
c-716 0 -776 1 -808 18 -54 27 -60 48 -60 225 l0 157 665 0 665 0 0 205 0 205
-665 0 -665 0 0 155 c0 119 4 163 15 185 33 64 -18 60 842 60 l783 0 0 210 0
210 -837 -1 c-461 -1 -865 -5 -897 -10z"/>
<path d="M12932 4939 c-421 -468 -417 -461 -417 -639 0 -181 -5 -174 418 -630
l352 -380 294 0 294 0 -20 23 c-11 12 -147 164 -303 337 -156 173 -318 353
-360 400 -178 197 -230 255 -230 260 0 3 202 230 450 505 247 275 450 503 450
508 0 4 -130 7 -288 7 l-288 0 -352 -391z"/>
<path d="M11050 5315 c0 -4 263 -298 772 -862 l128 -142 -455 -505 c-250 -278
-455 -508 -455 -511 0 -3 130 -5 289 -5 l289 0 39 43 c21 24 179 196 352 382
377 407 376 405 376 585 0 189 32 146 -689 943 l-70 77 -288 0 c-158 0 -288
-2 -288 -5z"/>
<path d="M5685 2595 c-254 -46 -374 -229 -375 -571 0 -318 87 -484 297 -561
84 -31 285 -43 400 -24 162 28 278 123 332 272 20 54 41 207 41 297 l0 82
-260 0 -260 0 0 -70 0 -70 166 0 167 0 -7 -64 c-14 -141 -56 -215 -150 -264
-47 -24 -60 -26 -171 -27 -112 0 -124 2 -177 28 -69 34 -109 81 -139 167 -21
57 -23 84 -24 225 0 175 12 236 60 310 69 105 225 149 388 111 89 -21 131 -54
169 -136 l33 -70 93 0 c105 0 102 -3 72 85 -56 163 -163 255 -331 284 -84 14
-235 13 -324 -4z"/>
<path d="M10145 2597 c-139 -29 -243 -103 -303 -214 -50 -95 -67 -185 -67
-363 0 -232 34 -346 133 -452 87 -93 185 -128 377 -135 382 -14 549 123 584
475 20 199 -11 397 -80 503 -56 87 -127 139 -239 174 -72 22 -320 30 -405 12z
m342 -177 c66 -28 114 -80 144 -156 20 -51 24 -81 27 -222 3 -143 1 -171 -17
-232 -29 -93 -72 -148 -146 -185 -56 -28 -67 -30 -170 -30 -93 1 -118 4 -163
24 -63 29 -120 90 -145 157 -30 82 -42 229 -29 343 22 189 83 279 213 316 78
22 218 15 286 -15z"/>
<path d="M6600 2021 l0 -561 105 0 105 0 0 205 0 205 138 0 137 -1 100 -185
c55 -102 107 -194 115 -205 13 -18 25 -20 117 -17 l102 3 -119 210 c-66 116
-120 212 -120 215 0 3 21 14 47 24 55 23 118 77 140 120 61 117 55 296 -13
397 -16 24 -51 59 -78 76 -92 62 -118 66 -463 71 l-313 4 0 -561z m614 379
c59 -30 86 -75 93 -157 7 -83 -19 -148 -76 -188 l-43 -30 -189 -3 -189 -4 0
207 0 207 178 -4 c166 -3 181 -5 226 -28z"/>
<path d="M8025 2568 c-2 -7 -24 -74 -50 -148 -25 -74 -66 -193 -90 -265 -68
-200 -212 -617 -224 -648 -6 -16 -11 -33 -11 -38 0 -5 44 -9 99 -9 l98 0 16
43 c8 23 28 79 43 125 l27 82 225 -2 225 -3 40 -122 39 -123 104 0 c57 0 104
3 104 8 0 4 -35 115 -79 247 -43 132 -124 381 -180 553 l-102 312 -140 0
c-103 0 -141 -3 -144 -12z m164 -252 c12 -41 51 -162 85 -268 l62 -193 -174
-3 c-96 -1 -176 -1 -178 1 -5 5 170 537 176 537 3 0 16 -33 29 -74z"/>
<path d="M8870 2020 l0 -560 100 0 100 0 0 255 0 255 255 0 255 0 0 75 0 75
-255 0 -255 0 0 155 0 155 285 0 285 0 0 75 0 75 -385 0 -385 0 0 -560z"/>
<path d="M4160 1890 l0 -70 260 0 260 0 0 70 0 70 -260 0 -260 0 0 -70z"/>
<path d="M11500 1890 l0 -70 260 0 260 0 0 70 0 70 -260 0 -260 0 0 -70z"/>
</g>
</svg>
